<svg xmlns="http://www.w3.org/2000/svg" width="675" height="489" viewBox="0 0 675 489">
  <rect width="675" height="489" fill="#f5f7f6"/>
  <rect x="24" y="24" width="627" height="441" rx="8" fill="#ffffff" stroke="#dce5e6"/>
  <rect x="24" y="24" width="627" height="72" rx="8" fill="#123b52"/>
  <text x="52" y="57" fill="#ffffff" font-family="Arial, sans-serif" font-size="21" font-weight="700">WEEKLY CLASS SCHEDULE</text>
  <text x="52" y="80" fill="#b8d0d3" font-family="Arial, sans-serif" font-size="11">ตัวอย่างตารางเรียน 675 × 489 px · เปลี่ยนเป็นรูปจริงได้ในหน้าเว็บ</text>
  <g fill="#72858b" font-family="Arial, sans-serif" font-size="12" font-weight="700" text-anchor="middle">
    <text x="123" y="126">เวลา</text><text x="214" y="126">จันทร์</text><text x="305" y="126">อังคาร</text><text x="396" y="126">พุธ</text><text x="487" y="126">พฤหัสบดี</text><text x="578" y="126">ศุกร์</text>
  </g>
  <g stroke="#dce5e6" fill="none">
    <path d="M72 138H627M72 192H627M72 246H627M72 300H627M72 354H627M72 408H627"/>
    <path d="M72 108V408M163 108V408M254 108V408M345 108V408M436 108V408M527 108V408M627 108V408"/>
  </g>
  <g fill="#8a9b9e" font-family="Arial, sans-serif" font-size="11" text-anchor="middle">
    <text x="117" y="171">08:00</text><text x="117" y="225">10:00</text><text x="117" y="279">12:00</text><text x="117" y="333">14:00</text><text x="117" y="387">16:00</text>
  </g>
  <g font-family="Arial, sans-serif" font-size="11" text-anchor="middle">
    <rect x="174" y="147" width="69" height="36" rx="4" fill="#e3edf4"/><text x="208" y="169" fill="#39718a">คณิตศาสตร์</text>
    <rect x="265" y="201" width="69" height="36" rx="4" fill="#f7ead8"/><text x="300" y="223" fill="#a46a26">วิทยาศาสตร์</text>
    <rect x="356" y="255" width="69" height="36" rx="4" fill="#dfeee7"/><text x="390" y="277" fill="#41715e">ภาษาไทย</text>
    <rect x="447" y="309" width="69" height="36" rx="4" fill="#e3edf4"/><text x="481" y="331" fill="#39718a">ภาษาอังกฤษ</text>
    <rect x="538" y="147" width="69" height="36" rx="4" fill="#f7ead8"/><text x="572" y="169" fill="#a46a26">สังคมศึกษา</text>
  </g>
</svg>
